<svg width="64" height="64" viewBox="0 0 64 64" fill="none" xmlns="http://www.w3.org/2000/svg">
<path d="M32.743 1.66774C33.4607 1.58428 34.7935 1.44778 35.0995 2.18005C36.3446 5.15953 35.5835 12.9983 35.2788 15.9619C38.7292 16.2889 41.5431 17.6324 44.1364 19.8851C46.5295 17.4058 49.4369 14.9504 52.154 12.8637C54.9663 10.7039 56.6036 14.2342 55.2971 15.634C52.9196 18.1812 49.5857 20.7063 46.9945 23.1275C48.8792 25.7961 49.2813 28.123 49.7693 31.2679C52.3767 31.3283 60.0505 30.5945 61.7875 32.1214C62.1856 32.4713 62.3773 32.9045 62.3978 33.4302C62.421 34.0254 62.2232 34.5969 61.7783 35.0052C61.284 35.4586 60.6055 35.674 59.9528 35.7767C57.6294 36.1419 51.8915 35.8789 49.4069 35.679C48.8061 38.0919 47.8777 39.8663 46.583 41.9714C48.2748 43.5704 61.8496 55.9613 52.6322 54.751C51.7517 54.6355 45.355 46.7543 43.5587 44.9741C40.1716 47.2639 39.6031 47.4339 35.6728 48.5925C35.5661 51.1939 35.8794 54.0986 35.8492 56.7353C35.822 59.1116 36.0498 64.0074 32.1073 61.8747C31.2684 60.8239 31.3058 58.81 31.286 57.4829C31.215 54.7038 31.3032 51.5536 31.3145 48.753C28.0824 48.4641 25.234 47.0001 22.7319 45.0214L22.6279 45.1423C20.8842 47.1545 18.7536 48.9604 17.064 51.078C16.4305 51.872 13.5012 55.1686 12.5106 54.8948C8.10612 53.6775 11.2673 50.4249 13.1028 48.5043C15.4957 45.9719 17.4906 43.9348 19.8877 41.9222C18.6391 39.929 17.3796 37.1051 17.1954 34.7462C13.6215 34.9792 10.0514 35.2671 6.48634 35.6098C5.1709 35.7259 3.33296 36.0319 2.31679 35.1169C0.625056 33.5936 2.23153 31.5921 3.98322 31.3399C8.15529 30.7388 13.0481 30.4395 17.2204 30.4501C17.4078 27.6487 18.9595 24.5735 20.6465 22.3578C20.1391 22.0059 19.6651 21.6049 19.2036 21.1896C16.3478 18.6195 13.2814 16.2391 10.5298 13.5618C10.2068 13.2475 9.82954 12.3576 9.64492 11.9357C10.1235 11.0041 11.1247 9.37785 12.2268 9.85161C15.1305 11.0999 22.0307 17.1816 23.8338 19.4759C26.5497 17.4685 28.2184 17.0272 31.3282 16.0399C30.9498 13.7898 31.3338 6.39692 31.4564 3.78486C31.4983 2.89004 31.9917 2.19313 32.743 1.66774ZM33.8133 44.3454C40.3814 44.1388 45.5526 38.6914 45.3949 32.1452C45.237 25.5988 39.8095 20.405 33.2392 20.5128C26.5982 20.6218 21.3179 26.1008 21.4774 32.7174C21.6367 39.3339 27.1749 44.5541 33.8133 44.3454Z" fill="url(#paint0_linear_185_160)"/>
<defs>
<linearGradient id="paint0_linear_185_160" x1="50.3996" y1="1.59997" x2="8.79961" y2="58.8" gradientUnits="userSpaceOnUse">
<stop stop-color="#FF83FF"/>
<stop offset="0.288462" stop-color="#FFBCFF"/>
<stop offset="0.581731" stop-color="#CAA3FF"/>
<stop offset="0.850962" stop-color="#B383FF"/>
</linearGradient>
</defs>
</svg>
