<svg width="64" height="64" viewBox="0 0 64 64" fill="none" xmlns="http://www.w3.org/2000/svg">
<path d="M43.3991 6C46.3053 6.16195 48.4051 6.50646 50.9404 7.94707C57.0006 11.3898 59.026 17.2239 57.5263 23.7838C55.9708 30.5866 51.4231 34.3607 45.8656 38.2209C41.6602 41.1437 37.5566 44.6057 35.6258 49.4346C35.1016 50.7449 34.6676 52.137 33.9586 53.3781C32.1882 54.3143 31.3589 54.1109 29.5742 53.316C27.4314 49.5955 28.1533 47.4847 24.4965 43.7572C19.0107 38.7815 11.8224 36.5181 8.10838 29.1775C5.81434 24.8202 5.39682 20.3274 6.83388 15.6299C10.0821 5.01037 25.8443 4.54654 30.7215 14.0821C33.6234 8.53994 37.2458 6.47004 43.3991 6ZM22.5227 37.4543C27.0318 40.641 30.4995 43.4056 31.843 49.059C36.1644 35.2417 51.0421 35.5411 54.0242 22.1516C55.5726 15.2006 49.3534 8.82346 42.3478 9.81097C38.2599 10.1484 35.4697 12.5407 33.9227 16.124C33.2195 17.752 32.5506 21.9949 29.9194 20.854C29.3163 20.2328 28.4254 18.2984 28.1576 17.5727C24.4249 7.431 9.55419 9.13324 9.77491 20.6634C9.94837 29.7225 16.0027 32.8273 22.5227 37.4543Z" fill="url(#paint0_linear_185_150)"/>
<defs>
<linearGradient id="paint0_linear_185_150" x1="47.7368" y1="6" x2="15.786" y2="53.5935" gradientUnits="userSpaceOnUse">
<stop stop-color="#FF83FF"/>
<stop offset="0.288462" stop-color="#FFBCFF"/>
<stop offset="0.581731" stop-color="#CAA3FF"/>
<stop offset="0.850962" stop-color="#B383FF"/>
</linearGradient>
</defs>
</svg>
