<svg width="64" height="64" viewBox="0 0 64 64" fill="none" xmlns="http://www.w3.org/2000/svg">
<path d="M30.8082 20.7329C42.043 19.6781 51.817 26.716 58.2984 35.0496C59.947 36.9837 63.124 39.2723 60.4631 41.9154C52.1339 50.1922 45.6922 58.2178 33.248 59.0248C21.8524 59.1694 14.7512 54.1121 6.72109 46.5958C5.79714 45.6993 2.33396 43.3539 2.28775 41.9309C2.21898 39.8161 7.6845 34.924 9.00168 33.5715C15.88 26.5095 21.0747 22.4967 30.8082 20.7329ZM7.82921 41.2615C8.92587 42.3662 10.0601 43.2386 11.1128 44.2522C15.9245 48.8844 21.1247 52.7252 27.7845 54.0312C28.8859 54.2463 30.1969 54.5405 31.3325 54.5405L31.5173 54.5388C42.5086 55.031 49.0789 46.336 56.1735 39.5631C49.6156 32.1191 44.3549 25.878 33.6974 25.2516C33.2891 25.2258 32.88 25.2172 32.4709 25.2241C23.6393 26.0002 19.564 29.5759 13.2742 35.7379C11.5649 37.4122 9.38671 39.5115 7.82921 41.2615Z" fill="url(#paint0_linear_185_158)"/>
<path d="M30.75 30.3641C35.7508 29.4805 40.4939 32.9866 41.3528 38.203C42.2117 43.4179 38.8622 48.3755 33.8653 49.2841C28.8524 50.1945 24.083 46.6851 23.2215 41.4536C22.3598 36.2204 25.7333 31.2511 30.75 30.3641ZM33.2079 44.9512C35.6142 44.4835 37.3432 42.2687 37.2946 39.7147C37.2658 38.2047 36.6115 36.7816 35.5007 35.8128C34.3899 34.844 32.9313 34.4247 31.5018 34.6636C29.7215 34.9592 28.2321 36.2337 27.603 37.9959C26.9737 39.7598 27.3021 41.7392 28.4623 43.179C29.6226 44.6188 31.4355 45.2953 33.2079 44.9512Z" fill="url(#paint1_linear_185_158)"/>
<path d="M53.0919 8.62923C61.0214 8.48321 49.6848 20.0298 48.4809 20.5975C40.2348 21.2958 51.4646 9.7145 53.0919 8.62923Z" fill="url(#paint2_linear_185_158)"/>
<path d="M11.0293 10.2291C12.6851 10.1952 13.2283 10.8522 14.2201 12.0139C15.8413 13.9964 17.8866 15.7643 19.3802 17.8384C20.5596 19.4776 19.4944 20.634 18.0906 21.4231C15.9739 21.5846 13.1686 17.5501 11.7216 16.0073C9.95145 14.1196 8.08399 12.1068 11.0293 10.2291Z" fill="url(#paint3_linear_185_158)"/>
<path d="M31.5761 5.46193C32.1246 5.39409 33.3633 5.36459 33.68 6.00829C34.2488 7.16409 34.227 8.72254 34.2395 10.018C34.2572 11.8701 34.3531 13.7702 34.2088 15.6176C34.142 16.4676 33.5271 16.9431 32.9879 17.3974C29.6823 17.8644 30.4219 12.8423 30.3163 10.5707C30.2319 8.75613 30.2453 6.6592 31.5761 5.46193Z" fill="url(#paint4_linear_185_158)"/>
<defs>
<linearGradient id="paint0_linear_185_158" x1="49.8029" y1="5.42785" x2="14.3902" y2="59.2075" gradientUnits="userSpaceOnUse">
<stop stop-color="#FF83FF"/>
<stop offset="0.288462" stop-color="#FFBCFF"/>
<stop offset="0.581731" stop-color="#CAA3FF"/>
<stop offset="0.850962" stop-color="#B383FF"/>
</linearGradient>
<linearGradient id="paint1_linear_185_158" x1="49.8029" y1="5.42785" x2="14.3902" y2="59.2075" gradientUnits="userSpaceOnUse">
<stop stop-color="#FF83FF"/>
<stop offset="0.288462" stop-color="#FFBCFF"/>
<stop offset="0.581731" stop-color="#CAA3FF"/>
<stop offset="0.850962" stop-color="#B383FF"/>
</linearGradient>
<linearGradient id="paint2_linear_185_158" x1="49.8029" y1="5.42785" x2="14.3902" y2="59.2075" gradientUnits="userSpaceOnUse">
<stop stop-color="#FF83FF"/>
<stop offset="0.288462" stop-color="#FFBCFF"/>
<stop offset="0.581731" stop-color="#CAA3FF"/>
<stop offset="0.850962" stop-color="#B383FF"/>
</linearGradient>
<linearGradient id="paint3_linear_185_158" x1="49.8029" y1="5.42785" x2="14.3902" y2="59.2075" gradientUnits="userSpaceOnUse">
<stop stop-color="#FF83FF"/>
<stop offset="0.288462" stop-color="#FFBCFF"/>
<stop offset="0.581731" stop-color="#CAA3FF"/>
<stop offset="0.850962" stop-color="#B383FF"/>
</linearGradient>
<linearGradient id="paint4_linear_185_158" x1="49.8029" y1="5.42785" x2="14.3902" y2="59.2075" gradientUnits="userSpaceOnUse">
<stop stop-color="#FF83FF"/>
<stop offset="0.288462" stop-color="#FFBCFF"/>
<stop offset="0.581731" stop-color="#CAA3FF"/>
<stop offset="0.850962" stop-color="#B383FF"/>
</linearGradient>
</defs>
</svg>
