<svg width="64" height="64" viewBox="0 0 64 64" fill="none" xmlns="http://www.w3.org/2000/svg">
<path d="M30.8534 9.51294C38.1539 8.87192 44.8636 11.8311 47.7783 19.138C48.1825 20.1503 48.3315 21.9936 48.686 23.201C49.6912 23.4727 51.2513 23.5059 52.284 23.7426C55.0891 24.4233 57.4558 26.4533 59.093 28.7671C64.4396 36.3246 63.0284 46.124 55.2022 51.3116C48.8487 55.5234 41.8786 55.6113 34.6449 54.2337C27.9986 52.754 23.0699 53.9056 16.4287 54.2148C12.6834 54.397 9.0768 53.7796 6.29942 51.0368C-2.0723 42.77 3.44068 25.5752 15.5913 25.431C15.7094 22.4819 17.1223 18.8393 18.8759 16.5163C21.7941 12.6638 26.1028 10.1444 30.8534 9.51294ZM38.9553 50.1898C45.3705 51.0073 52.534 49.5915 56.1714 43.579C58.4902 39.7478 57.9371 34.9604 55.221 31.4998C53.9195 29.8376 52.1401 28.6259 50.1296 28.032C49.4754 28.2885 48.6928 28.5655 48.09 28.9087C46.3672 31.8401 44.6324 33.8718 41.9232 30.5475C43.211 26.8293 45.2506 24.2125 43.2384 20.1727C40.661 14.9991 35.9721 13.6992 30.7883 14.0256C27.1697 14.9207 23.945 16.7015 21.9413 20.0025C21.2118 21.204 20.7203 22.5393 20.496 23.9324C20.2528 25.4393 20.7683 29.7958 18.8725 29.9645C14.3017 30.3716 11.5994 30.0202 8.64353 34.3119C5.94201 38.234 6.05384 45.8864 10.5718 48.3844C15.7094 51.2261 24.6078 48.1807 30.343 48.8647C33.8006 49.1699 36.0594 49.8613 38.9553 50.1898Z" fill="url(#paint0_linear_185_152)"/>
<defs>
<linearGradient id="paint0_linear_185_152" x1="50.445" y1="9.42785" x2="22.6751" y2="59.6696" gradientUnits="userSpaceOnUse">
<stop stop-color="#FF83FF"/>
<stop offset="0.288462" stop-color="#FFBCFF"/>
<stop offset="0.581731" stop-color="#CAA3FF"/>
<stop offset="0.850962" stop-color="#B383FF"/>
</linearGradient>
</defs>
</svg>
