<svg width="64" height="64" viewBox="0 0 64 64" fill="none" xmlns="http://www.w3.org/2000/svg">
<path d="M30.3788 4.82323L30.454 4.82029C40.3238 4.4867 48.3399 8.25734 53.7878 16.5773C57.2432 21.8544 58.8379 27.7876 58.3771 34.116C58.286 35.367 58.2954 36.6159 58.0588 37.8548C57.8835 38.7582 57.5389 39.6173 57.2415 40.4847C54.4269 51.0316 43.7399 58.4282 32.9277 58.7421C26.9326 59.3022 19.6367 56.8159 14.9143 53.0636C7.46784 47.1643 3.46924 36.8887 5.20028 27.5528C7.26418 16.4216 15.2351 7.40422 26.5089 5.2578C27.7986 5.01224 29.0727 4.95328 30.3788 4.82323ZM32.7363 54.8277C45.4631 54.2313 55.2891 43.4178 54.6676 30.6922C54.046 17.9666 43.213 8.16204 30.4886 8.80885C17.8 9.45384 8.02885 20.2499 8.64867 32.9398C9.26849 45.6298 20.0451 55.4223 32.7363 54.8277Z" fill="url(#paint0_linear_185_148)"/>
<path d="M31.3182 14.7536C32.9891 14.7914 36.5287 14.4502 35.7262 17.3813C35.2204 18.9424 33.4422 18.5255 32.202 18.4857C29.046 18.3844 25.9703 19.7159 23.6002 21.6575C18.7257 25.6509 16.9629 33.9434 21.9076 38.6045C22.4854 39.1492 22.289 39.9368 22.0553 40.5979C21.2187 41.7704 19.954 42.0818 18.8611 41.0079C16.8484 39.0302 15.2647 35.7107 15.1131 32.8776C14.8402 28.2733 16.4043 23.7487 19.4623 20.2959C21.6713 17.8504 24.7829 15.8177 28.0216 15.12C29.2729 14.8505 30.0473 14.8189 31.3182 14.7536Z" fill="url(#paint1_linear_185_148)"/>
<path d="M33.0649 39.5408C35.2875 39.3613 37.2326 41.0228 37.4027 43.2462C37.5727 45.4696 35.9029 47.4076 33.6788 47.5682C31.4681 47.7277 29.5443 46.0702 29.3752 43.8601C29.2062 41.6501 30.8556 39.7193 33.0649 39.5408Z" fill="url(#paint2_linear_185_148)"/>
<path d="M41.9856 24.6215C44.1929 24.286 46.2516 25.8113 46.5734 28.0206C46.8952 30.2301 45.3573 32.2793 43.146 32.5875C40.9539 32.8929 38.9264 31.3713 38.6073 29.1811C38.2883 26.9909 39.7974 24.954 41.9856 24.6215Z" fill="url(#paint3_linear_185_148)"/>
<defs>
<linearGradient id="paint0_linear_185_148" x1="47.8651" y1="4.79998" x2="10.8268" y2="55.3828" gradientUnits="userSpaceOnUse">
<stop stop-color="#FF83FF"/>
<stop offset="0.288462" stop-color="#FFBCFF"/>
<stop offset="0.581731" stop-color="#CAA3FF"/>
<stop offset="0.850962" stop-color="#B383FF"/>
</linearGradient>
<linearGradient id="paint1_linear_185_148" x1="47.8651" y1="4.79998" x2="10.8268" y2="55.3828" gradientUnits="userSpaceOnUse">
<stop stop-color="#FF83FF"/>
<stop offset="0.288462" stop-color="#FFBCFF"/>
<stop offset="0.581731" stop-color="#CAA3FF"/>
<stop offset="0.850962" stop-color="#B383FF"/>
</linearGradient>
<linearGradient id="paint2_linear_185_148" x1="47.8651" y1="4.79998" x2="10.8268" y2="55.3828" gradientUnits="userSpaceOnUse">
<stop stop-color="#FF83FF"/>
<stop offset="0.288462" stop-color="#FFBCFF"/>
<stop offset="0.581731" stop-color="#CAA3FF"/>
<stop offset="0.850962" stop-color="#B383FF"/>
</linearGradient>
<linearGradient id="paint3_linear_185_148" x1="47.8651" y1="4.79998" x2="10.8268" y2="55.3828" gradientUnits="userSpaceOnUse">
<stop stop-color="#FF83FF"/>
<stop offset="0.288462" stop-color="#FFBCFF"/>
<stop offset="0.581731" stop-color="#CAA3FF"/>
<stop offset="0.850962" stop-color="#B383FF"/>
</linearGradient>
</defs>
</svg>
