<svg width="64" height="64" viewBox="0 0 64 64" fill="none" xmlns="http://www.w3.org/2000/svg">
<path d="M31.5074 5.01673C33.4567 4.91555 35.5341 5.2572 37.1078 6.48313C39.7149 8.51398 39.5968 11.671 39.5016 14.6318C39.4395 16.511 39.3359 18.3886 39.1911 20.2633C39.1581 20.7143 39.0934 21.182 39.0686 21.6277C38.9319 24.088 38.7833 26.548 38.6519 29.0087C38.5865 30.2326 38.4397 31.4474 38.3438 32.6687C38.1158 37.0859 38.6695 42.7492 32.7827 43.3929C31.2781 43.5885 29.4195 43.0243 28.3168 41.9754C27.5511 41.2331 27.015 40.2865 26.7725 39.2483C26.3687 37.5599 26.4098 35.5327 26.2667 33.8092C26.1521 32.4285 26.0304 31.0928 25.9461 29.7062L25.711 25.274C25.6705 24.3381 25.6512 23.3899 25.6037 22.4504C25.4631 19.6686 25.0964 16.8704 25.016 14.0838C24.9543 11.5839 24.982 8.84401 26.8052 6.90594C27.9329 5.70724 29.8869 5.05505 31.5074 5.01673ZM32.8992 39.5332C33.4797 39.2932 33.8916 39.0114 34.1065 38.3902C34.4635 37.3585 34.4941 35.733 34.5588 34.6257L34.7344 31.7285L35.3195 21.9978C35.5011 18.8248 35.8271 15.6467 35.8291 12.4764C35.83 11.0415 35.5642 9.66797 34.1109 9.11909C33.4316 8.86256 32.359 8.73295 31.6557 8.83485C30.4458 8.92946 29.2257 9.31423 28.9393 10.6827C28.5501 12.5422 28.8032 14.5509 28.8932 16.4342C29.0383 18.6267 29.2892 20.7058 29.3745 22.9004C29.4694 25.3392 29.5702 27.7435 29.7025 30.1773C29.7392 30.8511 29.8384 31.5783 29.8858 32.2661L30.1117 35.8159C30.1587 36.5554 30.1715 37.277 30.3084 38.0002C30.5032 39.0286 31.3357 39.7349 32.3921 39.638C32.538 39.6245 32.7674 39.5959 32.8992 39.5332Z" fill="#CAA3FF"/>
<path d="M31.7948 45.9279C35.4141 45.6916 38.5407 48.4308 38.781 52.0487C39.0213 55.6665 36.2844 58.7949 32.6656 59.039C29.0412 59.2835 25.9057 56.5426 25.6651 52.9191C25.4244 49.2957 28.1699 46.1645 31.7948 45.9279ZM32.2133 55.2321C33.7345 55.2335 34.9714 54.0068 34.9818 52.4861C34.9921 50.9655 33.772 49.7219 32.2509 49.7028C30.7172 49.6834 29.4608 50.9152 29.4504 52.4485C29.4399 53.9818 30.6796 55.2304 32.2133 55.2321Z" fill="#CAA3FF"/>
</svg>
