<svg width="110" height="112" viewBox="0 0 110 112" fill="none" xmlns="http://www.w3.org/2000/svg">
<path fill-rule="evenodd" clip-rule="evenodd" d="M47.4126 18.0188C50.9951 17.9939 54.5781 17.9937 58.1602 18.0181C59.9958 18.0468 61.863 18.1697 63.6905 18.1815C69.4276 18.2168 75.8962 17.8592 80.5087 21.8579C81.1491 22.4131 82.0714 23.4654 82.3989 24.2441C83.823 27.6248 83.1245 31.81 83.3224 35.3228C84.4139 34.1572 85.4849 32.8994 86.5587 31.7088C88.3163 29.7706 90.0929 27.8498 91.8895 25.9469C93.2224 24.5348 94.5362 23.1978 95.9523 21.8461C97.7474 20.0584 101.187 18.9604 103.069 21.2461C104.536 23.0665 104.544 30.4744 104.612 32.6767C104.768 32.7468 104.596 37.8139 104.657 42.8825C104.803 55.1244 105.263 76.3529 104.796 88.5945C104.675 91.7551 103.899 95.9732 99.6816 95.505C98.6137 95.386 97.5693 94.7777 96.7347 94.1229C95.0551 92.6414 93.6729 90.6764 92.1913 88.9945C90.0915 86.5206 88.0219 84.0554 86.0325 81.5024C85.1537 80.4622 84.3374 79.3843 83.4586 78.3433C83.463 83.0885 83.491 89.149 80.1135 92.7785C77.4426 95.6495 74.3941 96.5902 70.5574 96.7928C67.0069 96.98 63.4292 96.8748 59.9045 96.8704L40.317 96.8023C35.3056 96.8204 30.2726 97.0549 25.2538 96.9881C22.2506 96.9489 19.1011 97.1477 16.1314 96.5104C11.602 95.5391 7.24231 92.2951 5.88962 87.7902C5.57918 86.7406 5.48131 85.182 5.38968 84.0779C5.27604 82.7866 5.18311 81.4945 5.11113 80.2002C4.95112 77.0817 5.01363 74.4365 5.03424 71.3376L5.01194 40.8987C5.00465 37.8544 4.9336 34.966 5.24706 31.9221C5.36143 30.8108 5.37893 29.8561 5.614 28.7295C6.07033 26.4735 7.14915 24.3855 8.73162 22.6955C11.9015 19.2698 16.081 18.2135 20.6359 18.0882C22.054 18.0492 23.5399 18.1401 24.9633 18.1531C28.0837 18.2065 31.2051 18.1742 34.3236 18.0563L34.4389 18.0484C35.5127 17.9781 36.8917 18.0444 38.0023 18.0346L47.4126 18.0188ZM58.4758 61.3084C56.5718 61.7207 56.2611 63.8948 55.2631 65.4191C51.2642 71.5254 43.1427 73.3736 36.7615 69.8595C34.1657 68.4317 32.3092 66.8173 31.0972 64.122C30.4674 62.721 29.8766 61.0006 27.9463 61.4085C25.0849 62.1279 26.6081 65.4468 27.4248 67.0503C29.7584 71.1168 34.1528 74.1633 38.6773 75.4046C43.44 76.7177 48.5387 76.0747 52.8123 73.6204C56.3576 71.6264 59.4739 68.2864 60.7457 64.4225C61.2991 62.7413 60.3835 61.368 58.5715 61.2881L58.4758 61.3084ZM55.2514 39.2718C54.7848 39.0523 54.3344 39.0367 53.8273 39.0731C52.5967 39.4641 52.1099 40.0905 52.0784 41.3784C51.9993 44.6069 52.0302 47.8613 52.0346 51.0903C52.0369 52.8127 52.8057 53.9024 54.706 53.7855C55.3206 53.6157 55.8792 53.38 56.1949 52.7984C56.6468 51.9641 56.585 43.356 56.4916 41.798C56.4636 41.3305 56.4077 40.8274 56.2597 40.3806C56.0993 39.8984 55.7129 39.4891 55.2514 39.2718ZM33.4805 39.0569C33.1042 38.9478 32.706 38.9518 32.3198 39.0001C31.1335 39.4568 30.672 40.1899 30.6509 41.4349C30.5971 44.6163 30.5524 47.8166 30.6508 50.9972C30.7089 52.8768 31.4757 54.0965 33.5902 53.6915C34.1843 53.4166 34.6842 53.0984 34.9228 52.4607C35.2746 51.5198 35.2214 43.2453 35.0949 41.7552C35.0487 41.212 34.9812 40.5704 34.7339 40.0767C34.4806 39.5711 34.0249 39.2148 33.4805 39.0569Z" fill="url(#paint0_linear_189_432)"/>
<defs>
<linearGradient id="paint0_linear_189_432" x1="5.00002" y1="89.3158" x2="72.4991" y2="2.23003" gradientUnits="userSpaceOnUse">
<stop stop-color="#667FFF"/>
<stop offset="0.5" stop-color="#CEA2FF"/>
<stop offset="1" stop-color="#FF85B1"/>
</linearGradient>
</defs>
</svg>
