<svg width="110" height="112" viewBox="0 0 110 112" fill="none" xmlns="http://www.w3.org/2000/svg">
<path d="M51.6351 8.06992C52.0043 7.96494 53.1989 8.00297 53.5984 8.0265C61.6615 8.50069 67.0934 15.5534 67.9962 23.1492C68.1125 24.1271 68.2587 25.1239 68.1798 26.1269C72.3052 21.1202 77.6664 16.7282 84.5393 17.1028C91.9695 17.5078 96.9512 23.6992 96.3898 30.9675C95.9687 36.4268 92.5601 41.9721 88.4596 45.5055C94.4122 45.3512 100.496 48.4532 103.307 53.7915C105.118 57.2594 105.493 61.297 104.351 65.0379C102.278 71.6216 96.1938 75.4645 89.5518 76.2176C85.002 76.7338 81.3425 76.0677 77.0585 74.732C76.9929 77.2343 77.3043 81.2553 77.4248 83.8984L77.5817 83.9265C83.5153 85.007 87.8333 90.0015 86.6606 96.1419C86.2345 98.3575 84.9413 100.312 83.0668 101.574C78.7429 104.476 67.8841 104.283 62.7039 103.37C59.6898 102.839 57.1616 101.648 55.4182 99.0527C52.0711 103.761 46.2156 104.003 40.9261 104C36.7848 103.998 31.8115 103.947 28.1969 101.716C23.9762 99.1098 23.4424 93.1185 26.1445 89.2318C27.9772 86.5489 30.4043 85.0931 33.5804 84.4096C33.5718 83.6158 34.0123 79.2004 34.1563 78.5509C30.7322 80.14 28.1658 81.0862 24.3478 81.5767C19.3325 82.2214 13.8961 81.3936 9.82963 78.2136C7.15547 76.1331 5.43812 73.0617 5.06778 69.6985C4.68879 66.3462 5.9294 62.9657 8.03288 60.3715C9.00115 59.1659 10.1285 58.0971 11.3842 57.194C13.6897 55.5294 18.0815 53.6066 20.9866 53.2934C20.4621 53.0601 19.9619 52.7625 19.4695 52.4688C14.4975 49.5026 10.1966 44.4673 9.79524 38.4865C9.57598 35.0683 10.7429 31.7056 13.0337 29.1542C15.3626 26.5346 18.6445 24.9522 22.149 24.759C28.2129 24.413 33.4882 27.7177 37.8298 31.5786C37.5763 30.6356 37.4661 29.3556 37.3476 28.3709C36.2401 19.1633 41.64 9.05449 51.6351 8.06992ZM46.9985 62.8795C49.5034 66.7423 53.6989 68.7225 58.2886 68.092C62.3933 67.5277 65.6291 64.477 66.5834 60.4809C66.9979 58.7475 66.1507 57.3663 64.2512 57.6952L64.1516 57.7508C62.7654 58.5445 63.0154 59.731 62.3534 61.0608C59.9431 65.9013 52.5877 64.9857 50.0865 60.7079C49.474 59.6581 49.4966 58.2396 48.1351 57.8088C47.0546 57.4666 45.9927 58.233 45.7924 59.2952C45.5699 60.4759 46.4548 61.8695 46.9985 62.8795ZM55.8136 93.479C56.3609 91.1118 58.2961 81.063 57.2895 79.5112C57.0104 79.0886 56.5652 78.8044 56.0644 78.7298C55.8127 78.6909 55.5901 78.7017 55.3385 78.7157C54.8094 78.9287 54.292 79.241 54.0777 79.8003C53.4041 81.5585 54.9074 91.7448 55.6134 93.962L55.6865 93.9637C55.7305 93.8029 55.7729 93.6414 55.8136 93.479ZM65.0652 50.5663C66.1665 50.3646 66.8991 49.3165 66.7089 48.2161C66.5187 47.1157 65.4763 46.3731 64.3717 46.5508C63.6457 46.6676 63.0386 47.1642 62.782 47.8513C62.5261 48.5385 62.659 49.3101 63.1316 49.8718C63.6042 50.4336 64.3426 50.6988 65.0652 50.5663ZM47.7093 50.6179C48.8092 50.521 49.6314 49.5674 49.5631 48.468C49.4947 47.3686 48.5608 46.5237 47.4573 46.5632C46.7173 46.5896 46.0501 47.0145 45.7145 47.6729C45.379 48.3312 45.428 49.1194 45.8424 49.7314C46.257 50.3434 46.9717 50.6828 47.7093 50.6179Z" fill="url(#paint0_linear_189_430)"/>
<defs>
<linearGradient id="paint0_linear_189_430" x1="5" y1="98.9474" x2="100.413" y2="9.18725" gradientUnits="userSpaceOnUse">
<stop stop-color="#667FFF"/>
<stop offset="0.5" stop-color="#CEA2FF"/>
<stop offset="1" stop-color="#FF85B1"/>
</linearGradient>
</defs>
</svg>
