<svg width="113" height="51" viewBox="0 0 113 51" fill="none" xmlns="http://www.w3.org/2000/svg">
<path d="M24.7883 39.6931C23.3096 36.3529 17.3559 32.8058 13.0203 32.8058C6.6578 32.8058 1.5 36.506 1.5 41.0705C1.5 45.635 6.6578 49.3353 13.0203 49.3353C19.3827 49.3353 22.9302 44.4515 24.5405 41.0705C29.0734 31.5536 24.4167 22.7879 20.3288 18.6556C17.0586 15.3497 15.5955 12.2692 15.2727 11.1422C15.0172 10.3968 14.8784 9.59625 14.8784 8.76294C14.8784 4.75173 18.0951 1.5 22.0631 1.5C26.0311 1.5 29.2477 4.75173 29.2477 8.76294" stroke="#322A89" stroke-width="3"/>
<path d="M32.7158 20.501V30.5189M32.7158 36.5367V30.5189M32.7158 30.5189C33.17 29.6423 34.8465 27.8892 37.9185 27.8892C41.7586 27.8892 41.5109 32.1468 41.5109 33.399C41.5109 34.4008 41.5109 38.5749 41.5109 40.5367" stroke="#322A89" stroke-width="3"/>
<path d="M58.4817 33.5571C58.4817 36.8768 55.8196 39.5678 52.5358 39.5678C49.2519 39.5678 46.5898 36.8768 46.5898 33.5571C46.5898 30.2375 49.2519 27.5464 52.5358 27.5464C55.8196 27.5464 58.4817 30.2375 58.4817 33.5571ZM58.4817 33.5571V26.5446M58.4817 33.5571V40.6949" stroke="#322A89" stroke-width="3"/>
<path d="M80.7795 40.5696V32.4103C80.7795 30.9268 80.0156 29.5503 78.7633 28.777C77.4154 27.9446 75.7201 27.9446 74.3722 28.777C73.1199 29.5503 72.356 30.9268 72.356 32.4103M72.356 40.5696V32.4103M72.356 32.4103C72.356 30.9268 71.5922 29.5503 70.3399 28.777C68.992 27.9446 67.2967 27.9446 65.9488 28.777C64.6965 29.5503 63.9326 30.9268 63.9326 32.4103M63.9326 40.5696V32.4103M63.9326 32.4103V26.5446" stroke="#322A89" stroke-width="3"/>
<path d="M85.2383 33.8076C85.2383 37.1272 87.9004 39.8183 91.1842 39.8183C93.1743 39.8183 94.936 38.83 96.0153 37.3124M85.2383 33.8076C85.2383 30.488 87.9004 27.7969 91.1842 27.7969C94.4681 27.7969 97.1302 30.488 97.1302 33.8076H85.2383Z" stroke="#322A89" stroke-width="3"/>
<path d="M103.077 47.2988L105.731 40.7872L111.5 26.637M105.731 40.7872L100.228 26.637" stroke="#322A89" stroke-width="3"/>
<path d="M39.7773 44.043C46.8724 51.3533 58.6272 51.2846 65.7909 44.043" stroke="#322A89" stroke-width="3"/>
</svg>
