<svg width="97" height="44" viewBox="0 0 97 44" fill="none" xmlns="http://www.w3.org/2000/svg">
<path d="M13.4524 2.74416C15.6118 -0.0249298 18.6942 -0.545775 21.2795 0.501976C23.7908 1.51993 25.7914 3.99119 26.0979 7.05471L23.1125 7.35354C22.9189 5.41759 21.6504 3.88943 20.1526 3.28225C18.7425 2.71078 17.0947 2.92851 15.7942 4.61916L15.7766 4.6426L15.757 4.66506C14.9432 5.64174 14.5786 6.46033 14.4524 7.1553C14.3276 7.84236 14.4132 8.52997 14.7004 9.28713C15.3218 10.9253 16.721 12.567 18.4719 14.7891C20.1404 16.9066 21.9996 19.4194 23.0149 22.5176C24.048 25.6707 24.1794 29.3335 22.594 33.7149C22.2793 34.5845 21.8985 35.471 21.4465 36.375L21.4319 36.4043L21.4162 36.4326C18.5511 41.5898 12.8667 43.3845 8.1965 42.6875C5.84911 42.3372 3.61949 41.3424 2.06466 39.6826C0.472744 37.9831 -0.3266 35.6694 0.125209 32.958C0.578558 30.2379 2.07163 28.3695 4.12423 27.3028C6.10845 26.2716 8.51004 26.0376 10.8264 26.2744C13.159 26.5129 15.5383 27.2412 17.5754 28.2832C18.6266 28.8209 19.6229 29.4626 20.4856 30.1924C21.0266 27.5693 20.7932 25.3705 20.1643 23.4512C19.3271 20.8965 17.7662 18.7405 16.1154 16.6455C14.5471 14.6551 12.7263 12.5405 11.8957 10.3506C11.4569 9.19364 11.2589 7.94816 11.5002 6.61916C11.7252 5.38069 12.3123 4.17709 13.259 2.98245L13.4524 2.74416ZM10.5217 29.2588C8.55881 29.0581 6.80074 29.2931 5.50802 29.9649C4.2836 30.6012 3.38182 31.6713 3.08517 33.4512C2.78719 35.2393 3.29966 36.6128 4.25412 37.6319C5.24613 38.6908 6.79884 39.4461 8.63888 39.7207C12.336 40.2725 16.6401 38.824 18.7795 34.999C19.0469 34.4622 19.2827 33.9364 19.4914 33.4219C18.7672 32.5502 17.6374 31.6847 16.2092 30.9541C14.489 30.0743 12.4685 29.4579 10.5217 29.2588Z" fill="#322A89"/>
<path d="M43.5648 22.7363C45.185 22.4972 46.8867 23.0201 48.1822 23.9919C48.1791 23.684 48.1801 23.376 48.1863 23.068C49.0879 23.0285 50.3244 23.028 51.2214 23.0541C51.1189 23.9923 51.1717 26.1839 51.1717 27.1903L51.1707 35.0253C50.679 34.9589 48.6123 34.9695 48.1511 35.0267L48.162 34.0894C47.8783 34.2685 47.5683 34.4461 47.2785 34.6188C45.0336 35.7866 42.376 35.528 40.4023 33.9408C36.2064 30.5667 38.1327 23.2992 43.5648 22.7363ZM45.0576 32.6434C47.0368 32.4223 48.4653 30.6431 48.2536 28.6628C48.0414 26.6825 46.2692 25.2458 44.2877 25.4486C42.2934 25.6527 40.8453 27.4395 41.0586 29.4328C41.272 31.426 43.0653 32.8659 45.0576 32.6434Z" fill="#322A89"/>
<path d="M62.0078 24.4374C63.0015 23.4912 63.7401 23.0168 65.164 22.8931C66.2949 22.8288 67.593 23.1613 68.447 23.9226C69.9754 25.2847 69.8874 27.33 69.8817 29.1842L69.8693 32.8152C69.8651 33.5213 69.8305 34.364 69.8807 35.0497C69.3885 34.9839 67.431 35.0015 66.9507 35.0738C66.9092 34.5279 66.931 33.6663 66.931 33.1072L66.9387 29.6227C66.9434 28.6099 67.0956 26.9709 66.3446 26.1994C66.0402 25.8929 65.6267 25.7194 65.195 25.717C63.2298 25.7058 62.9156 27.2845 62.926 28.8765C62.9337 30.1132 62.9208 31.3686 62.9166 32.6066C62.9234 33.2854 62.8514 34.4182 62.9342 35.0524C62.2738 34.9675 60.6279 34.9749 59.9727 35.0519C59.9954 33.736 60.0192 32.3285 59.9923 30.986C59.9675 29.7873 60.2941 26.982 59.3469 26.1504C58.2176 25.1584 56.2999 25.9023 56.1136 27.4925C55.9832 28.6018 55.9935 29.7544 55.992 30.8842C56.0096 32.2121 55.8781 33.6924 55.9966 35.0011C55.0759 34.9381 53.9657 34.9718 53.0319 34.9844C52.9947 34.1689 53.0392 33.0783 53.0459 32.2394L53.0744 26.3424C53.0765 25.3464 53.1122 24.1048 53.0599 23.1236C53.9646 23.1488 55.1183 23.1402 56.0194 23.1128C56.0028 23.3419 55.9687 23.5988 55.9438 23.8298C56.6519 23.2533 57.4039 23.0147 58.289 22.8892C59.8438 22.7614 60.9561 23.3706 62.0078 24.4374Z" fill="#322A89"/>
<path d="M77.1545 22.7376C77.2218 22.7294 77.2896 22.724 77.3574 22.7215C80.1006 22.6199 82.4494 23.7977 83.4918 26.4578C83.999 27.7531 83.9529 28.7975 83.985 30.161C83.2428 30.08 81.8019 30.139 80.9924 30.1296C78.7979 30.1039 76.5666 30.1677 74.3731 30.1229C75.2395 32.4744 77.434 33.2848 79.7254 32.2498C80.3418 31.9713 80.7864 31.55 81.2833 31.1019L81.806 31.4735C82.3578 31.9333 82.7361 32.3545 83.3557 32.8173C79.8429 37.094 71.8929 35.8759 71.309 29.8649C70.9524 26.1956 73.4803 23.1065 77.1545 22.7376ZM74.4072 27.686C75.6712 27.6647 76.9361 27.6585 78.2001 27.6676C79.1462 27.6723 80.0918 27.6694 81.0379 27.6591C80.407 26.2285 79.0049 25.106 77.3642 25.4261C75.6293 25.6493 75.2752 26.36 74.4072 27.686Z" fill="#322A89"/>
<path d="M26.4455 17.3298C26.9211 17.3908 28.9754 17.36 29.498 17.3355C29.3474 18.6377 29.5092 20.5751 29.4475 21.9185C29.4212 22.492 29.4847 23.0007 29.3961 23.6011C30.3449 23.02 30.9062 22.749 32.0574 22.7028C33.2595 22.6545 34.4465 23.0116 35.3399 23.8513C37.0529 25.4616 36.6588 28.2637 36.671 30.4002C36.6795 31.8732 36.6173 33.3641 36.6559 34.8453C35.9789 34.7751 34.3393 34.7585 33.6854 34.8729L33.7107 29.5361L33.7148 28.3792C33.7126 27.5326 33.7301 26.646 33.0757 26.0123C32.2135 25.2013 30.8405 25.3832 30.0642 26.2216C29.3927 26.9071 29.426 27.878 29.4325 28.7918C29.4465 30.7497 29.3546 32.7658 29.4228 34.7245C28.6686 34.6981 27.0983 34.677 26.408 34.7562C26.3745 29.0001 26.5646 23.0669 26.4455 17.3298Z" fill="#322A89"/>
<path d="M86.1058 23.0557C86.4655 23.0431 86.6451 23.0584 87.0038 23.0971C87.8764 25.7222 89.2812 28.6286 90.0839 31.2802C90.4861 29.9326 91.3551 28.0079 91.867 26.6157C92.1573 25.8269 92.9591 23.7071 93.3017 23.0806C94.266 23.0353 95.5211 23.0581 96.4801 23.0725C96.2074 23.5172 95.5076 25.3894 95.255 26.0073L93.3379 30.6119C93.0113 31.3913 92.6977 32.2121 92.3468 32.9767L90.2402 38.0596C90.0456 38.5357 89.3546 40.3219 89.1062 40.6699C88.2098 40.6318 86.9961 40.6538 86.0944 40.6694C86.7254 38.8069 87.7662 36.8226 88.4618 34.9658C87.4251 32.2728 86.2968 29.5542 85.2311 26.8715C84.9687 26.2111 83.963 23.5401 83.6784 23.0834C84.4873 23.0794 85.2968 23.0702 86.1058 23.0557Z" fill="#322A89"/>
<path d="M34.793 36.2222C35.3174 36.5279 36.1424 37.3346 36.69 37.735C38.5533 39.0974 41.0155 40.2065 43.3127 40.4866C46.7055 40.9004 49.8575 39.8935 52.6566 37.9995C53.4723 37.4475 54.1006 36.9063 54.8661 36.3003C55.3599 36.7655 56.5079 38.0318 56.9509 38.3432C56.6243 38.7218 55.6461 39.5717 55.2569 39.8331C54.8692 40.1637 54.4458 40.438 54.0302 40.7212C47.8177 44.9566 39.8341 44.3429 34.1183 39.5557C33.6384 39.1538 33.1871 38.7123 32.693 38.3181C33.2928 37.6715 34.135 36.7926 34.793 36.2222Z" fill="#322A89"/>
</svg>
