<svg width="64" height="64" viewBox="0 0 64 64" fill="none" xmlns="http://www.w3.org/2000/svg">
<path d="M18.0166 15.2939C18.8888 2.67148 33.964 -2.55906 42.5322 6.70996C43.5186 7.777 44.4514 9.31995 45.1084 11.0244C45.7675 12.7344 46.0919 14.4577 46.0059 15.8662L45.877 17.9795L47.9941 17.9883C50.3414 17.9977 52.6303 18.6081 54.71 19.7402H54.7109C54.8923 19.839 55.1757 19.9952 55.4434 20.1533C55.5774 20.2325 55.6957 20.3051 55.7891 20.3662C55.8971 20.4369 55.9184 20.4577 55.8916 20.4346L56.082 20.5986L56.3076 20.7109C56.2781 20.6963 56.2851 20.697 56.335 20.7314C56.3806 20.763 56.4401 20.808 56.5156 20.8682C56.5907 20.9279 56.6702 20.9933 56.7568 21.0664C56.8344 21.1318 56.9385 21.2205 57.0234 21.291C59.073 22.9928 60.4458 25.1093 61.3125 27.6982V27.6973C62.4596 31.1772 62.1628 34.9714 60.4883 38.2314L60.4824 38.2432L60.4766 38.2539C58.8144 41.5905 55.8857 44.1253 52.3418 45.2939C50.9576 45.7358 49.5127 45.9593 48.0596 45.9561L46.125 45.9521L46.0566 47.8857C46.0333 48.5463 45.9949 49.0782 45.9316 49.7441C45.569 52.6301 44.3112 55.3305 42.334 57.4668C33.8504 66.5106 18.9933 61.1496 18.0312 48.96C18.0048 48.6255 17.9933 48.2818 17.9805 47.8848L17.9141 45.8193L15.8516 45.9531C15.4938 45.9763 15.0733 45.9328 14.4453 45.8701L14.4424 45.8691C11.7175 45.6011 9.13848 44.514 7.04492 42.752L7.04004 42.748L6.77344 42.5205C4.05856 40.133 2.36317 36.7899 2.04688 33.1826C1.74105 29.45 2.92639 25.7477 5.34375 22.8838L5.34961 22.876C8.14347 19.5339 11.6324 18.3303 16.208 17.9111L18.1279 17.7344L18.0225 15.8096C18.0095 15.5725 18.0073 15.4288 18.0166 15.2939Z" stroke="url(#paint0_linear_114_583)" stroke-width="4"/>
<defs>
<linearGradient id="paint0_linear_114_583" x1="38.5" y1="-1.90106e-07" x2="10.5" y2="55.5" gradientUnits="userSpaceOnUse">
<stop stop-color="#FF83FF"/>
<stop offset="0.317308" stop-color="#FFBCFF"/>
<stop offset="0.620192" stop-color="#CFAAFF"/>
<stop offset="1" stop-color="#B383FF"/>
</linearGradient>
</defs>
</svg>
